<svg id="圖層_1" data-name="圖層 1" xmlns="http://www.w3.org/2000/svg" viewBox="0 0 89 50"><defs><style>.cls-1{fill:#fff;}</style></defs><title>logo2</title><path class="cls-1" d="M36.72-.4,30.6,48.7,30.46,50H21l-.14-1.22L18.43,35,16.06,48.78,15.84,50H6.41l-.15-1.3L.07-.4H8.14l3.38,29.3,3.6-18.57.22-1.15h6.84l.21,1.15,3,17.93L28.73-.4h8Z"/><path class="cls-1" d="M61.34-.4V7.52H48.67V17H58.75v7.92H48.67V42.08H61.34V50H40.75V17h7.92L40.75,1.33V-.4H61.34Z"/><path class="cls-1" d="M89.06-.4V50H81.14l-7.2-22.54V50H66V-.4h7.92v.14l7.2,23.76V-.4h7.92Z"/></svg>